<?xml version="1.0" standalone="no"?>
<!DOCTYPE svg PUBLIC "-//W3C//DTD SVG 1.1//EN" "http://www.w3.org/Graphics/SVG/1.1/DTD/svg11.dtd" >
<svg xmlns="http://www.w3.org/2000/svg">
<metadata></metadata>
<defs>
<font id="007_goldeneyeregular" horiz-adv-x="512" >
<font-face units-per-em="2048" ascent="1638" descent="-410" />
<missing-glyph horiz-adv-x="500" />
<glyph horiz-adv-x="0" />
<glyph unicode="&#xd;" horiz-adv-x="2048" />
<glyph unicode=" " />
<glyph unicode="*" horiz-adv-x="863" d="M-106 939l22 31l86 -1t113 11t39 22l11 10l86 102h-152l-9 -10t-10 -21q-3 -32 19 -61l-13.5 3t-25.5 10q-22 11 -22.5 35.5t2.5 45.5q1 14 12 35t29 21h347l-26 -38l-33.5 -1.5t-54.5 -14.5q-21 -14 -40 -34l-19 -20l-78 -88l-12.5 -13t-41.5 -16q-36 -5 -95.5 0.5 t-83.5 -3.5q-20 -9 -23 -16l-3 -7zM54 1199q52 71 66 144h695l-1.5 -23.5t-8.5 -38.5q-8 -15 -22 -35l-14 -19h-303l-18 -28h-394z" />
<glyph unicode="+" horiz-adv-x="619" d="M59 184q-108 165 158 509t751 664q484 318 906 427t531 -56q108 -165 -158.5 -509.5t-751.5 -662.5q-485 -320 -906.5 -428.5t-529.5 56.5zM118 223q87 -132 475 -10.5t849 424.5q460 302 725 611t179 441q-87 132 -476 11t-849 -424t-725 -612t-178 -441z" />
<glyph unicode="0" horiz-adv-x="707" d="M51 800q15 204 145.5 384t355.5 180q60 0 108 -19q128 -51 85.5 -211.5t-115.5 -281.5q-53 -87 -120 -145t-170 -82q-102 -17 -201.5 12.5t-87.5 162.5zM230 729q18 -34 72 -29q61 11 121.5 85t101 166.5t51.5 181.5t-26 131q-27 17 -67 15q-54 -12 -88 -54.5t-58 -86.5 q-35 -66 -90 -200t-17 -209z" />
<glyph unicode="1" horiz-adv-x="582" d="M39 632q12 19 23.5 39t32.5 31q30 9 62.5 4t61.5 6q11 4 24 16q40 114 81 229t83 230q11 29 -5 39q-44 0 -87 -1t-86 4q22 63 103 77q66 9 140 27t140 18h9.5h17.5l-216 -616q-2 -5 13 -22l124 -5q-13 -25 -24.5 -47t-41.5 -29h-455z" />
<glyph unicode="2" horiz-adv-x="789" d="M53 631l40 110q120 73 309.5 175t241.5 247q48 135 -72 117.5t-169 -57.5l-65 -57q-26 15 -35 38q-10 24 -13 56q16 33 66 51q32 12 80 28q72 20 156 25t156 -23q121 -49 78 -173q-54 -149 -240 -244.5t-318 -165.5l319 -2q33 3 49.5 26.5t33.5 49.5q19 0 38.5 0.5 t29.5 -19.5l-86 -178z" />
<glyph unicode="3" horiz-adv-x="774" d="M69 628q-17 23 4 54.5l33 49.5q75 -29 159 -34t158 34q40 27 104 94t-11 118q-53 36 -113.5 29.5t-117.5 -6.5q6 9 8.5 22t6.5 24q8 25 74 35q67 7 128 28q47 15 89.5 52.5t48.5 91.5q4 47 -36 55t-94 -3.5t-107 -33.5t-73 -35q-12 24 -21.5 47t5.5 50q78 52 202 56.5 t212 -12.5q50 -10 80 -48.5t11 -91.5q-22 -62 -95 -105.5t-135 -54.5q21 -7 39.5 -13t33.5 -10q30 -12 51 -29q78 -44 19 -135q-36 -57 -98 -106.5t-89 -62.5q-91 -45 -232.5 -72.5t-243.5 12.5z" />
<glyph unicode="4" horiz-adv-x="734" d="M49 819q1 23 12 52q12 36 43.5 64.5t65.5 63.5q93 96 218.5 186.5t213.5 156.5h143l-109 -319l-36 -102l117 -4l-41 -92q-38 0 -112 -6q-12 -47 -29 -93t-33 -91l-175 -3l58 187h-336zM194 917q56 0 113.5 -1t113.5 5q24 66 49 136.5t49 135.5q-188 -140 -325 -276z" />
<glyph unicode="5" horiz-adv-x="752" d="M21 625q-24 21 0.5 56.5t37.5 53.5q63 -37 157 -37q77 0 143 30q103 52 132 132q22 63 -15 89t-97 31t-124 -2t-95 -10q33 95 74 188t75 189q131 1 262 3t263 2q-5 -7 -8 -15q-7 -14 -6 -13q-7 -26 -10 -33q-9 -26 -20 -39q-12 -14 -39 -21l-369 -6q-15 -41 -35 -79.5 t-34 -78.5q72 10 162.5 12t155.5 -31q51 -27 60 -74.5t-8 -96.5q-51 -144 -221 -205.5t-302 -61.5q-76 0 -139 17z" />
<glyph unicode="6" horiz-adv-x="683" d="M29 761q-21 126 40.5 244t165.5 204t231.5 128t240.5 17l9 -22q-8 -36 -8 -37q-4 -18 -9 -29q-135 29 -259.5 -26.5t-174.5 -195.5q69 40 155 54t163 -16q60 -24 67.5 -83t-10.5 -111q-27 -77 -85 -141q-80 -88 -201 -123.5t-234 14.5q-78 44 -91 123zM193 756.5 q20 -55.5 107 -55.5q66 14 118 86.5t55 138.5q1 100 -111 92q-45 -14 -92.5 -54t-69.5 -91q-27 -61 -7 -116.5z" />
<glyph unicode="7" horiz-adv-x="692" d="M32 631q105 171 250.5 313.5t297.5 271.5q-85 7 -170 2.5t-170 -4.5q-36 -8 -51 -21q-17 -18 -27 -41.5t-36 -29.5q-51 -9 -70 -7l92 224l468 10h136q-27 -138 -148.5 -242.5t-205.5 -207.5q-108 -134 -180 -268h-186z" />
<glyph unicode="8" horiz-adv-x="794" d="M17.5 765q11.5 90 83.5 152q63 52 159 79q-58 24 -84 65q-44 67 -9 123t103.5 96.5t149 63t127.5 22.5q58 0 131.5 -24.5t76.5 -96.5q2 -81 -64.5 -134.5t-133.5 -77.5q132 -87 97 -190.5t-156 -173.5q-78 -45 -191 -61.5t-197 22.5q-104 45 -92.5 135zM183 737 q26 -42 84 -43t98 14q73 28 102 97q31 74 -24.5 105t-114.5 48q-57 -24 -123.5 -86.5t-21.5 -134.5zM345.5 1183.5q-22.5 -52.5 31.5 -85.5q31 -20 89 -36q37 21 96 67.5t30 103.5q-25 49 -83.5 45.5t-95.5 -21.5q-45 -21 -67.5 -73.5z" />
<glyph unicode="9" horiz-adv-x="813" d="M35 667q4 20 12 44q106 -21 204 5q166 42 225 205q-75 -39 -212 -44.5t-161 111.5q-23 109 58.5 203t194.5 143t222 37t143 -114q54 -168 -70.5 -346t-278.5 -242q-141 -58 -277 -58q-25 0 -38 4q-15 2 -21 17t-1 35zM282 1000q12 -43 74 -43q88 0 143 75q71 101 50 203 q-10 45 -55.5 44t-78.5 -13q-35 -14 -72 -64t-55 -104.5t-6 -97.5z" />
<glyph unicode="A" horiz-adv-x="1527" d="M46 627l128 44l9 3l561 721q2 4 9 4h55q6 0 9 -4l516 -720l9 -3l113 -45l-12 -6h-404l-11 6l94 44l8 2q5 0 0 5l-164 221q-4 4 -8 4h-481q-5 -2 -9 -4l-174 -223l11 -8l141 -41l-39 -6h-350zM510 958q-3 -3 -3 -4q0 -4 12 -4h399q13 0 13 5q0 1 -1 3l-196 270q-5 3 -8 3 q-6 0 -9 -3z" />
<glyph unicode="B" horiz-adv-x="1209" d="M75 627l106 44l11 5v648l-11 6l-106 44l11 5h422q273 0 387 -31q76 -21 116 -52q47 -40 47 -90q0 -119 -270 -168q155 -17 254 -69q110 -57 110 -134q0 -63 -70 -115q-131 -99 -523 -99h-473zM385 678q0 -5 11 -5h139q396 0 396 152q0 180 -438 180h-97q-11 0 -11 -5 v-322zM385 1054q0 -6 11 -6h67q182 0 272 28q122 37 122 117q0 67 -88 100q-80 31 -205 33l-84 2h-84q-11 0 -11 -6v-268z" />
<glyph unicode="C" horiz-adv-x="1315" d="M19 999q0 63 30 117q32 55 88 98q53 43 134 79q77 33 169 57q96 23 200 35q97 11 219 11q23 0 91 -2q68 -4 102 -7q52 -5 102 -9q25 -3 46.5 -5t40.5 -3q12 -2 12 -6v-171q0 -5 -12 -5l-141 131q0 3 -9 5q-18 2 -49 6q-16 2 -31.5 3.5t-31.5 4.5q-21 2 -65 6q-46 2 -66 2 q-144 0 -262 -23q-116 -25 -193 -66q-80 -42 -120 -102q-41 -60 -41 -130q0 -75 43 -140q42 -67 123 -118t192 -79q112 -30 250 -30q12 0 58 2q17 0 34 1l34 2q24 1 68 5q37 5 57 10q9 3 9 6l141 132q12 0 12 -6v-170q0 -4 -12 -5q-19 -3 -39.5 -5.5t-41.5 -4.5 q-23 -3 -46.5 -5.5t-49.5 -3.5q-66 -6 -113 -8q-62 -3 -134 -3q-117 0 -227 14q-108 13 -195 39q-93 26 -159 61q-73 37 -117 78q-50 45 -74 95q-26 49 -26 107z" />
<glyph unicode="D" horiz-adv-x="1475" d="M24 627l147 48l11 6v639l-11 5l-147 49l11 5h542q383 0 595 -88q233 -98 233 -287q0 -383 -861 -383h-509zM375 678q0 -5 11 -5h156q332 0 484 60q169 67 169 233q0 362 -618 362h-191q-11 0 -11 -6v-644z" />
<glyph unicode="E" horiz-adv-x="1143" d="M36 627l144 44l11 5v651l-11 3l-144 44l11 5h1000q11 0 11 -5v-177q0 -6 -11 -6l-137 132q0 5 -10 5h-505q-12 0 -12 -6v-278q0 -6 12 -6h303l105 44l10 -3v-142l-10 -3l-105 55h-303q-12 0 -12 -6v-305q0 -5 12 -5h535q12 0 12 4l137 130q10 0 10 -5v-175q0 -6 -10 -6 h-1032z" />
<glyph unicode="F" horiz-adv-x="1082" d="M24 627l150 44l10 5v651q-2 3 -6 3h-4l-150 44l8 5h987q12 0 12 -5v-177q0 -6 -12 -6l-136 132q0 5 -12 5h-483q-11 0 -11 -6v-295q0 -5 11 -5h291l103 51l12 -4v-138l-12 -3l-103 45h-291q-11 0 -11 -5v-292l11 -5l150 -44l-10 -6h-494z" />
<glyph unicode="G" horiz-adv-x="1497" d="M40 999q0 117 115 211q117 92 326 142q184 44 411 44q115 0 298 -18q40 -5 87 -8q10 -2 10 -6v-171q0 -5 -10 -5l-142 131q0 3 -9 5q-187 22 -250 22q-289 0 -456 -86q-166 -87 -166 -235q0 -151 160 -255q175 -114 460 -114q81 0 221 15v227l-10 6l-152 43l13 6h468 l12 -6l-128 -43l-11 -4v-262q0 -5 -10 -6q-219 -27 -432 -27q-347 0 -573 108q-232 109 -232 286z" />
<glyph unicode="H" horiz-adv-x="1491" d="M46 627l134 44l11 5v648l-11 6l-134 44l11 5h458l11 -5l-131 -44l-11 -6v-273l3 -3h709l2 3v273l-10 6l-132 44l11 5h442l11 -5l-119 -44l-11 -6v-648l11 -5l119 -44l-11 -6h-442l-11 6l132 44l10 5v315l-10 5h-693l-11 -5v-315l11 -5l131 -44l-11 -6h-458z" />
<glyph unicode="I" horiz-adv-x="525" d="M21 627l134 44l11 5v648l-11 6l-134 44l11 5h457l11 -5l-126 -44l-11 -6v-648l11 -5l126 -44l-11 -6h-457z" />
<glyph unicode="J" d="M-89 442q-1 1 -1 3t4 4q104 32 152 62q79 47 95 147q6 34 6 83v583l-11 6l-123 44l11 5h432l3 1l9 -6l-123 -44l-11 -6v-578q0 -119 -63 -189q-87 -95 -340 -146q-7 0 -11 5l-26 22q-1 2 -3 4z" />
<glyph unicode="K" horiz-adv-x="1318" d="M21 627l96 44l11 5v648l-11 6l-96 44l10 5h398l12 -5l-112 -44l-9 -6v-305l534 306l2 6l-9 3l-89 40l11 5h381l11 -5l-164 -45l-6 -1l-455 -262l-4 -3l2 -4l556 -385l7 -2l159 -45l-11 -6h-487l-11 6l96 39l9 3v6l-449 308l-8 2l-7 -2l-66 -38l-2 -4v-266l9 -5l105 -43 l-11 -6h-392z" />
<glyph unicode="L" horiz-adv-x="1114" d="M33 627l143 44l11 5v648l-11 6l-143 44l11 5h462l11 -5l-126 -44l-11 -6v-646l11 -5h511l11 4l137 130l11 -5v-175l-11 -6h-1006z" />
<glyph unicode="M" horiz-adv-x="1898" d="M63 627l134 44l11 5v648l-11 6l-125 44l11 5h372l8 -3l471 -593l472 593l9 3h372l11 -5l-131 -44l-12 -6v-648l12 -5l141 -44l-10 -6h-462l-11 6l128 44l10 5v626h-8l-545 -689l-11 -2h-23l-11 2l-545 681h-8v-618l10 -5l127 -44l-11 -6h-364z" />
<glyph unicode="N" horiz-adv-x="1514" d="M51 1374l11 5h310l8 -2l819 -553v496l-9 5l-119 49l10 5h350l11 -5l-122 -49l-11 -5v-702l-13 -6h-42l-11 4l-951 643v-578l8 -6l118 -48l-11 -6h-325l-12 6l100 48l12 6v639l-12 5z" />
<glyph unicode="O" horiz-adv-x="1601" d="M24 999q0 171 211 283q211 114 548 114q335 0 540 -112q202 -110 202 -281t-203 -282q-210 -116 -539 -116q-333 0 -545 112q-214 110 -214 282zM238 1025q0 -93 62 -174q71 -91 205 -142q132 -53 307 -53q249 0 384 102q116 88 116 222q0 150 -146 254 q-156 112 -409 112q-248 0 -391 -100q-128 -91 -128 -221z" />
<glyph unicode="P" horiz-adv-x="1163" d="M32 627l120 44l11 5v648l-11 6l-120 44l11 5h473q212 0 319 -18q273 -48 273 -197q0 -101 -175 -163q-154 -55 -359 -58l-214 20v-287l11 -5l130 -44l-12 -6h-446zM360 1002q0 -6 11 -6h128q390 0 390 175q0 83 -122 123q-104 34 -288 34h-108q-11 0 -11 -6v-320z" />
<glyph unicode="Q" horiz-adv-x="1812" d="M21 999q0 171 211 283q211 114 548 114q335 0 540 -112q202 -110 202 -281q0 -195 -256 -307q-83 -38 -183 -60q-6 -2 -6 -4q0 -4 2 -4q67 -25 143.5 -51t164.5 -38l339 -45l-290 -66q-3 -1 -8 -1q-35 0 -162 43q-142 47 -239 86q-66 27 -114 51q-5 3 -8 3h-9 q-55 -5 -116 -5q-333 0 -545 112q-214 110 -214 282zM235 1025q0 -93 63 -174q70 -90 204 -142q132 -53 307 -53q249 0 384 102q116 88 116 222q0 150 -146 254q-156 112 -409 112q-248 0 -391 -100q-128 -91 -128 -221z" />
<glyph unicode="R" horiz-adv-x="1407" d="M52 627l127 44l10 5v648l-10 6l-127 44l11 5h449q301 0 431 -47q154 -56 154 -151q0 -109 -210 -166q-63 -18 -139 -28q113 -27 214 -126l190 -186l16 -4l172 -44l-11 -6h-347q-12 0 -16 4l-189 203q-137 147 -354 147h-26q-10 0 -10 -5v-294l10 -5l140 -44l-12 -6h-462z M387 1027q0 -6 8 -6q153 0 215 3q158 7 229 63q41 30 41 78q0 163 -405 163h-78q-10 0 -10 -6v-295z" />
<glyph unicode="S" horiz-adv-x="1038" d="M65 1180q0 70 85 126q83 53 218 76q79 14 182 14q132 0 263 -16q18 -2 80 -10q10 -2 10 -6v-171l-10 -5l-142 131l-9 5q-40 23 -92 23h-4q-54 -1 -109 -1q-116 0 -194 -31q-89 -35 -89 -91q0 -55 79 -92q55 -26 173 -54l143 -33q168 -41 245 -81q95 -51 95 -127 q0 -114 -170 -176q-153 -56 -381 -56q-118 0 -271 18q-45 4 -78 12q-11 1 -11 5v170l11 6l145 -132q0 -1 1.5 -1.5t2.5 -0.5l6 -4q80 -20 215 -20t228 33q104 37 104 103q0 92 -241 151l-145 34q-160 37 -238 78q-102 52 -102 123z" />
<glyph unicode="T" horiz-adv-x="1337" d="M31 1197v177l11 5h1222l10 -5v-177l-10 -6l-137 132l-12 5h-357l-9 -6v-646l11 -5l140 -44l-12 -6h-461l-12 6l131 44l11 5v646l-9 6h-358l-11 -5l-137 -132z" />
<glyph unicode="U" horiz-adv-x="1451" d="M37 1374l11 5h407l11 -5l-117 -44l-12 -6v-406q0 -83 19 -130q13 -36 57 -61q114 -67 333 -67q234 0 349 94q35 28 48 93q7 32 7 83v394l-10 6l-101 44l11 5h321l11 -5l-99 -44l-11 -6v-390q0 -185 -149 -258q-146 -71 -407 -71q-297 0 -447 76q-66 33 -90 70 q-34 49 -34 126v447l-10 6z" />
<glyph unicode="V" horiz-adv-x="1502" d="M30 1374l12 5h437l11 -5l-103 -44l-9 -2v-6l409 -558l421 560l-11 8l-127 42l11 5h350l-101 -49l-9 -3l-550 -718l-9 -4h-58l-8 4l-520 716l-9 4z" />
<glyph unicode="W" horiz-adv-x="2259" d="M27 1379h446l11 -5l-111 -44l-9 -2v-6l397 -558l281 394l-115 167l-9 4l-137 45l11 5h448l11 -5l-112 -44l-9 -8l376 -559l393 561l-12 8l-118 42l10 5h361l12 -5l-130 -44l-8 -3l-521 -718l-9 -4h-61l-8 4l-325 474l-346 -474l-9 -4h-55l-9 4l-509 716l-9 4z" />
<glyph unicode="X" horiz-adv-x="1398" d="M-3 627l118 43l8 2l438 322l-400 334l-8 2l-142 44l12 5h486l10 -5l-118 -42l-8 -3v-6l295 -246l336 246l3 3l-11 6l-106 42l11 5h359l12 -5l-124 -43l-9 -2l-410 -301l427 -355l9 -2l147 -44l-12 -6h-485l-11 6l112 41l9 3v6l-325 268l-362 -268l-1 -6l2 -1l8 -2 l111 -41l-11 -6h-360z" />
<glyph unicode="Y" horiz-adv-x="1443" d="M52 1374l12 5h450l12 -5l-107 -42l-9 -3v-6l353 -327l369 327l2 3l-12 6l-89 42l11 5h320l11 -5l-114 -43l-8 -2l-439 -384l-2 -6v-263l11 -5l135 -44l-11 -6h-453l-11 6l125 44l11 5v257l-2 7l-430 388l-9 2z" />
<glyph unicode="Z" horiz-adv-x="1236" d="M-11 658l3 3l926 667h-717l-11 -5l-137 -132l-11 6v177l11 5h1079l10 -3l34 -30l1 -2l-3 -4l-933 -667h779l10 4l137 132l11 -5v-177l-11 -6h-1133l-10 4l-34 30z" />
<glyph unicode="a" horiz-adv-x="1353" d="M54 670l112 38l7 3l493 614q3 3 8 3h48q5 0 8 -3l453 -614l8 -2l98 -39l-10 -5h-354l-10 5l82 38l8 1q1 1 0 5l-144 188q-5 3 -8 3h-421q-5 0 -8 -3l-153 -190l9 -6l124 -36l-34 -5h-307zM460 952q-2 -2 -2 -3q0 -3 11 -3h349q12 0 12 4q0 1 -1 2l-171 230q-5 3 -8 3 q-6 0 -7 -3z" />
<glyph unicode="b" horiz-adv-x="1048" d="M54 670l93 38l9 4v552l-9 5l-93 38l9 4h370q240 0 339 -27q66 -17 103 -44q40 -33 40 -77q0 -102 -236 -142q136 -16 223 -60q97 -49 97 -114q0 -54 -62 -97q-115 -85 -459 -85h-415zM325 714q0 -5 10 -5h122q348 0 348 130q0 153 -385 153h-85q-10 0 -10 -4v-274z M325 1034q0 -5 10 -5h59q158 0 239 24q106 31 106 100q0 55 -76 85q-71 24 -180 28l-74 1h-74q-10 0 -10 -5v-228z" />
<glyph unicode="c" horiz-adv-x="1160" d="M22 987q0 53 27 100q27 46 76 83q46 37 118 67q66 29 149 49q81 19 175 30q105 10 192 10q35 0 80 -3q29 -1 89 -5q23 -3 45.5 -4.5t44.5 -3.5q21 -3 40 -4.5t36 -2.5q11 -2 11 -5v-145l-11 -5l-124 112q-4 3 -7 4q-2 0 -44 5q-18 3 -54 7q-15 1 -29 2t-29 3q-40 2 -57 2 q-127 0 -230 -20q-100 -20 -170 -56q-69 -36 -105 -86q-36 -51 -36 -111q0 -63 38 -120q36 -57 108 -100q65 -42 169 -68q101 -25 218 -25q10 0 23 0.5t28 0.5q31 1 60 3q40 2 59 5l51 8l7 5l124 112l11 -4v-145q0 -4 -11 -5q-17 -3 -34.5 -4.5t-36.5 -3.5q-50 -6 -85 -8 q-33 -4 -98 -7q-72 -2 -118 -2q-103 0 -198 11q-97 12 -172 34q-73 19 -140 52q-60 30 -102 66q-43 38 -65 81q-23 41 -23 91z" />
<glyph unicode="d" horiz-adv-x="1295" d="M23 670l129 41l9 5v545l-9 4l-129 42l9 4h476q334 0 522 -75q204 -83 204 -245q0 -326 -755 -326h-447zM330 714q0 -5 10 -5h137q293 0 424 52q149 56 149 198q0 308 -542 308h-168q-10 0 -10 -5v-548z" />
<glyph unicode="e" horiz-adv-x="985" d="M15 670l126 38l9 4v554l-9 3l-126 38l9 4h878l10 -4v-151l-10 -5l-120 112l-9 4h-443l-10 -5v-237l10 -4h266l92 37l9 -3v-120l-9 -3l-92 46h-266l-10 -5v-259l10 -5h469l10 4l121 111l9 -5v-149q0 -5 -9 -5h-906z" />
<glyph unicode="f" horiz-adv-x="950" d="M22 670l131 38l10 4v554l-6 3h-4l-131 38l7 4h866l10 -4v-151l-10 -5l-120 112l-10 4h-423l-10 -5v-251l10 -4h255l91 43l10 -3v-118l-10 -3l-91 39h-255l-10 -4v-249l10 -4l131 -38l-9 -5h-433z" />
<glyph unicode="g" horiz-adv-x="1294" d="M17 987q0 100 101 180q104 79 286 121q168 38 360 38q89 0 262 -16q12 -2 76 -7q9 -2 9 -5v-145l-9 -5l-124 112q-8 4 -9 4q-163 19 -218 19q-253 0 -401 -74q-146 -74 -146 -199q0 -128 141 -218q154 -97 404 -97q75 0 194 13v194l-10 4l-133 37l12 5h410l11 -5 l-113 -37l-9 -3v-223q0 -4 -9 -5q-195 -23 -379 -23q-306 0 -503 92q-203 93 -203 243z" />
<glyph unicode="h" horiz-adv-x="1296" d="M30 670l117 38l10 4v552l-10 5l-117 38l9 4h402l10 -4l-116 -38l-9 -5v-232l3 -3h622l2 3v232l-10 5l-115 38l9 4h388l10 -4l-104 -38l-10 -5v-552l10 -4l104 -38l-10 -5h-388l-9 5l115 38l10 4v268l-10 5h-608l-9 -5v-268l9 -4l116 -38l-10 -5h-402z" />
<glyph unicode="i" horiz-adv-x="476" d="M34 670l117 38l10 4v552l-10 5l-117 38l9 4h401l10 -4l-111 -38l-9 -5v-552l9 -4l111 -38l-10 -5h-401z" />
<glyph unicode="j" horiz-adv-x="429" d="M-98 513q-1 1 -1 2q0 2 4 4q95 29 133 52q70 42 84 126q5 33 5 70v497l-10 5l-108 38l10 4h379l2 1l9 -5l-108 -38l-10 -5v-493q0 -101 -56 -161q-77 -82 -298 -123q-6 0 -9 4l-23 19l-1 1z" />
<glyph unicode="k" horiz-adv-x="1161" d="M22 670l85 38l9 4v552l-9 5l-85 38l10 4h349l10 -4l-98 -38l-8 -5v-260l469 261l1 5l-7 3l-79 34l9 4h335l9 -4l-143 -39l-5 -1l-400 -223l-3 -2l2 -3l487 -328l6 -2l140 -39l-10 -5h-427l-9 5l84 34l7 2v5l-393 262l-7 3l-6 -3l-58 -32l-2 -3v-227l8 -4l92 -37l-10 -5 h-343z" />
<glyph unicode="l" horiz-adv-x="984" d="M37 670l125 38l9 4v552l-9 5l-125 38l9 4h406l9 -4l-111 -38l-9 -5v-550l9 -5h449l10 4l120 111l9 -5v-149l-9 -5h-883z" />
<glyph unicode="m" horiz-adv-x="1645" d="M36 670l118 38l9 4v552l-9 5l-110 38l10 4h326l8 -2l413 -506l414 506l8 2h326l9 -4l-114 -38l-11 -5v-552l11 -4l123 -38l-9 -5h-405l-10 5l113 38l9 4v533h-7l-479 -586l-10 -2h-19l-10 2l-478 580h-8v-527l10 -4l111 -38l-10 -5h-319z" />
<glyph unicode="n" horiz-adv-x="1297" d="M16 1307l9 4h272l7 -2l719 -471v423l-8 4l-105 42l10 4h306l10 -4l-107 -42l-9 -4v-598l-12 -5h-37l-9 3l-835 548v-493l8 -5l103 -41l-10 -5h-285l-10 5l87 41l10 5v545l-10 4z" />
<glyph unicode="o" horiz-adv-x="1416" d="M33 987q0 146 184 242q188 97 481 97t475 -96q176 -94 176 -239q0 -146 -178 -241q-183 -98 -473 -98q-293 0 -478 95q-187 94 -187 240zM220 1010q0 -81 55 -149q60 -76 180 -121q118 -45 269 -45q218 0 337 87q101 75 101 189q0 127 -128 217q-138 95 -358 95 q-216 0 -343 -85q-113 -77 -113 -188z" />
<glyph unicode="p" horiz-adv-x="1025" d="M33 670l105 38l10 4v552l-10 5l-105 38l9 4h416q187 0 279 -16q240 -39 240 -167q0 -85 -153 -139q-140 -48 -316 -49l-188 16v-244l10 -4l114 -38l-10 -5h-392zM320 990q0 -5 10 -5h113q342 0 342 149q0 71 -107 105q-92 28 -253 28h-95q-10 0 -10 -5v-272z" />
<glyph unicode="q" horiz-adv-x="1621" d="M49 987q0 146 184 242q186 97 481 97q294 0 474 -96q177 -93 177 -239q0 -166 -225 -262q-73 -32 -160 -51q-6 0 -6 -3q0 -2 2 -4q60 -21 126.5 -43t143.5 -32l298 -39l-255 -56q-3 -1 -8 -1q-32 0 -141 36q-124 40 -209 74q-49 18 -101 44q-4 2 -6 2h-9q-38 -4 -101 -4 q-294 0 -478 95q-187 94 -187 240zM236 1010q0 -81 55 -149q59 -76 179 -121q118 -45 269 -45q220 0 337 87q102 75 102 189q0 126 -128 217q-139 95 -359 95q-216 0 -343 -85q-112 -77 -112 -188z" />
<glyph unicode="r" horiz-adv-x="1230" d="M42 670l112 38l9 4v552l-9 5l-112 38l10 4h394q263 0 378 -40q135 -48 135 -128q0 -95 -184 -142q-57 -15 -122 -24q100 -25 188 -107l166 -159l14 -3l151 -38l-9 -5h-304q-10 0 -14 4l-167 173q-121 125 -310 125h-23q-9 0 -9 -4v-251l9 -4l123 -38l-11 -5h-405z M336 1011q0 -5 8 -5q134 0 188 3q137 4 201 53q36 27 36 67q0 138 -356 138h-68q-9 0 -9 -5v-251z" />
<glyph unicode="s" horiz-adv-x="919" d="M64 1142q0 59 75 107q74 45 191 65q76 12 160 12q108 0 231 -14q26 -4 70 -9q9 -2 9 -5v-145l-9 -5l-124 112l-9 4q-35 20 -80 20h-4q-47 -1 -95 -1q-101 0 -170 -27q-78 -29 -78 -77q0 -46 69 -79q47 -22 151 -45l126 -29q146 -33 215 -68q84 -45 84 -109 q0 -97 -150 -149q-134 -48 -334 -48q-103 0 -238 15q-45 5 -69 10q-9 1 -9 5v145l9 4l128 -112l4 -2l4 -3q71 -17 189 -17q117 0 200 28q92 31 92 88q0 78 -212 128l-128 29q-141 33 -208 67q-90 44 -90 105z" />
<glyph unicode="t" horiz-adv-x="1168" d="M23 1156v151l9 4h1072l9 -4v-151l-9 -5l-120 112l-10 4h-314l-8 -5v-550l10 -4l123 -38l-11 -5h-404l-10 5l114 38l10 4v550l-8 5h-314l-10 -4l-120 -112z" />
<glyph unicode="u" horiz-adv-x="1271" d="M31 1307l10 4h357l9 -4l-102 -38l-10 -5v-346q0 -74 16 -111q11 -30 50 -51q102 -58 292 -58q205 0 306 81q32 23 43 79q6 28 6 70v336l-10 5l-88 38l10 4h282l9 -4l-87 -38l-9 -5v-332q0 -157 -131 -220q-126 -60 -358 -60q-261 0 -391 64q-58 30 -80 60q-29 42 -29 107 v381l-9 5z" />
<glyph unicode="v" horiz-adv-x="1305" d="M14 1307l10 4h384l9 -4l-90 -38l-8 -2v-5l359 -475l370 477l-10 7l-112 36l10 4h307l-88 -42l-8 -3l-483 -611l-8 -3h-50l-8 3l-456 610l-8 3z" />
<glyph unicode="w" horiz-adv-x="1949" d="M-6 1311h391l9 -4l-98 -38l-7 -2v-5l348 -475l246 335l-101 143l-8 3l-119 39l9 4h393l9 -4l-98 -38l-7 -7l329 -476l345 478l-10 7l-104 36l9 4h317l10 -4l-114 -38l-7 -3l-457 -611l-8 -3h-53l-7 3l-285 404l-304 -404l-8 -3h-48l-8 3l-447 610l-8 3z" />
<glyph unicode="x" horiz-adv-x="1269" d="M38 670l104 37l7 2l384 274l-351 284l-7 2l-124 38l10 4h426l9 -4l-103 -36l-7 -3v-5l259 -209l295 209l2 3l-10 5l-92 36l9 4h315l11 -4l-110 -37l-7 -2l-360 -256l375 -303l7 -1l129 -38l-10 -5h-426l-9 5l98 36l8 2v5l-285 228l-318 -228l-1 -5l3 -1l6 -1l97 -36 l-9 -5h-316z" />
<glyph unicode="y" horiz-adv-x="1250" d="M31 1307l11 4h394l10 -4l-93 -36l-8 -3v-5l310 -278l324 278l2 3l-11 5l-78 36l9 4h281l9 -4l-99 -37l-7 -2l-385 -327l-2 -5v-224l9 -4l119 -38l-10 -5h-397l-10 5l110 38l10 4v219l-2 6l-378 330l-7 2z" />
<glyph unicode="z" horiz-adv-x="1120" d="M23 697l3 2l813 568h-630l-9 -4l-120 -112l-10 5v151l10 4h946l9 -2l30 -26l1 -2l-3 -3l-819 -569h684l9 4l120 112l10 -4v-151l-10 -5h-995l-8 3l-30 26z" />
<glyph unicode="&#xa0;" />
<glyph unicode="&#x2000;" horiz-adv-x="913" />
<glyph unicode="&#x2001;" horiz-adv-x="1827" />
<glyph unicode="&#x2002;" horiz-adv-x="913" />
<glyph unicode="&#x2003;" horiz-adv-x="1827" />
<glyph unicode="&#x2004;" horiz-adv-x="609" />
<glyph unicode="&#x2005;" horiz-adv-x="456" />
<glyph unicode="&#x2006;" horiz-adv-x="304" />
<glyph unicode="&#x2007;" horiz-adv-x="304" />
<glyph unicode="&#x2008;" horiz-adv-x="228" />
<glyph unicode="&#x2009;" horiz-adv-x="365" />
<glyph unicode="&#x200a;" horiz-adv-x="101" />
<glyph unicode="&#x202f;" horiz-adv-x="365" />
<glyph unicode="&#x205f;" horiz-adv-x="456" />
<glyph unicode="&#x25fc;" horiz-adv-x="1310" d="M0 0v1310h1310v-1310h-1310z" />
</font>
</defs>
</svg>
